<svg width="600" height="600" viewBox="0 0 600 600" fill="none" xmlns="http://www.w3.org/2000/svg">
<circle cx="300" cy="300" r="300" fill="#0C2933"/>
<path d="M284.5 97.2376C294.401 91.5214 306.599 91.5214 316.5 97.2376L468.53 185.012C478.431 190.729 484.53 201.293 484.53 212.725V388.275C484.53 399.707 478.431 410.271 468.53 415.988L316.5 503.762C306.599 509.479 294.401 509.479 284.5 503.762L132.47 415.988C122.569 410.271 116.47 399.707 116.47 388.275V212.725C116.47 201.293 122.569 190.729 132.47 185.012L284.5 97.2376Z" fill="#A44342"/>
<path d="M241.529 210.551C241.516 204.341 248.276 200.486 253.615 203.658L407.632 295.17C412.905 298.303 412.836 305.959 407.509 308.997L253.845 396.638C248.518 399.676 241.894 395.837 241.882 389.704L241.529 210.551Z" fill="#0C2933"/>
<path d="M249.5 211.5L208.5 141" stroke="#0C2933" stroke-width="4"/>
<path d="M246.5 396L210 461" stroke="#0C2933" stroke-width="4"/>
<path d="M411 302H484.5" stroke="#0C2933" stroke-width="4"/>
</svg>
