<svg width="752" height="750" viewBox="0 0 752 750" fill="none" xmlns="http://www.w3.org/2000/svg">
<rect x="1" width="750" height="750" fill="#0F323D"/>
<path opacity="0.7757" d="M250.751 594.581C250.751 594.581 172.5 603.408 95.5 631C35.5 652.5 35.5 653 3.33786e-06 669.5C3.33786e-06 692.5 -4.17233e-06 722.5 3.33786e-06 749.332H752C752.025 730.03 751 681 751 670C740 661 677.378 643.874 668 641C659.378 638.358 473.922 584.119 473.922 584.119L250.751 594.581Z" fill="#A44342"/>
<path d="M501.46 422.038C501.75 421.222 502.091 420.932 502.334 420.173C502.739 418.867 502.89 417.491 503.12 416.118C503.436 414.241 503.794 412.359 504.103 410.441C504.43 408.422 504.681 406.31 505.086 404.359C505.49 402.408 506.014 400.615 506.657 398.885C507.582 396.387 508.355 394.143 509.015 391.992C510.073 388.541 511.072 384.4 511.765 380.03C512.286 376.796 512.756 373.345 512.158 369.893C511.823 367.743 511.65 365.864 509.711 364.731C508.989 364.347 508.115 364.125 507.353 364.123C506.084 364.116 504.924 364.46 503.817 364.934C502.404 365.525 501.031 366.508 499.888 367.367C498.922 368.093 497.471 369.57 496.451 370.144L493.681 370.528C493.911 369.866 493.403 368.563 493.569 367.771C495.762 356.861 499.644 319.877 499.469 301.77C499.067 260.496 511.044 244.084 482.136 208.025C474.868 198.958 463.81 188.326 454.319 181.567C459.317 182.913 463.202 183.513 468.817 186.372C456.469 176.075 445.509 170.456 436.246 165.53C440.704 166.24 446.396 167.729 451.038 168.49C421.101 153.218 400.704 151.424 381.124 151.562L376.173 152.11C367.559 152.168 364.04 152.646 357.865 153.995C338.563 153.104 311.459 150.637 284.179 164.294C288.04 164.071 291.311 163.92 294.395 163.888C282.177 169.765 268.573 177.349 253.318 194.38C256.77 192.426 259.796 190.736 262.747 189.312C251.098 200.667 238.145 218.646 231.905 235.091C225.065 253.123 226.569 332.606 229.234 346.399C231.692 359.121 229.332 367.378 229.068 368.483C228.97 368.424 228.97 368.326 228.871 368.28C227.112 367.407 224.372 366.422 222.256 367.4C220.156 368.548 219.394 370.576 218.982 372.735C218.234 376.303 219.08 379.668 219.768 382.871C220.866 388.216 222.173 393.42 223.369 397.469C223.806 398.945 224.35 400.427 224.876 402.132C225.397 403.812 225.864 405.606 226.12 407.538C226.377 409.471 226.483 411.659 226.643 413.689C226.788 415.558 226.742 417.243 226.905 419.095C227.017 420.452 227.045 421.829 227.362 423.15C227.711 424.532 228.246 425.679 228.923 426.773C228.979 426.86 229.069 427.096 229.119 427.179C229.26 428.304 230.405 429.888 230.425 432.341C230.439 434.242 231.079 436.487 230.887 438.688C230.699 440.889 230.391 443.048 230.101 445.114C229.887 446.604 229.722 448.025 229.678 449.309C229.636 450.223 229.748 451.307 229.875 452.35C230.156 454.776 230.908 457.013 232.338 459.259C233.176 460.595 232.704 460.676 234.091 461.375C235.276 461.959 236.345 462.376 237.506 462.529C239.014 462.73 240.539 462.94 241.767 463.34C243.447 463.886 244.685 464.269 246.002 465.336C247.823 466.812 249.366 467.832 251.988 469.817C252.198 470.498 252.63 471.028 252.845 471.765C253.576 474.274 254.71 477.365 255.988 480.28C257.932 484.711 260.681 489.726 263.261 494.34L263.359 496.497C273.153 541.442 266.154 578.267 247.274 606.291C279.829 675.027 331.082 668.813 376.326 671.097C420.699 673.337 487.921 633.229 483.397 605.885C468.179 579.26 465.185 541.852 469.373 508.88C470.552 499.9 471.475 496.366 473.575 491.781C475.503 487.37 476.793 484.907 478.606 481.029C481.109 475.664 482.455 470.207 483.321 465.621C483.447 464.973 483.601 464.159 483.858 463.339C484.624 462.779 485.582 462.277 486.041 461.972C487.393 461.074 489.391 459.852 491.738 458.931C492.433 458.662 493.151 458.411 493.899 457.917C494.701 457.371 495.342 456.481 495.863 455.687C497.294 453.543 498.223 451.102 498.614 448.591C498.979 446.19 499.382 444.11 499.309 442.275C499.302 442.06 499.315 441.891 499.309 441.666C499.21 439.29 498.562 436.239 498.809 433.354C499.052 430.502 499.633 427.676 500.185 425.649C500.735 423.623 501.106 423.077 501.472 422.041L501.46 422.038Z" fill="#A44342"/>
<path d="M380.06 150.003C371.445 150.062 364.037 150.883 357.862 152.234C337.233 149.63 304.715 150.737 278.694 166.02C282.555 165.797 285.826 165.645 288.909 165.614C276.692 171.491 262.714 181.63 247.46 198.661C250.912 196.706 254.134 195.017 257.085 193.592C245.435 204.948 236.018 218.71 229.779 235.155C222.938 253.187 225.15 332.669 227.815 346.462C230.273 359.184 228.669 366.645 228.405 367.75C228.306 367.692 228.306 367.595 228.208 367.547C226.449 366.675 224.039 365.962 221.922 366.939C219.822 368.086 218.994 370.456 218.583 372.615C217.834 376.183 218.681 379.752 219.369 382.955C220.467 388.3 221.905 393.3 223.101 397.35C223.538 398.825 223.952 400.51 224.476 402.215C224.997 403.895 225.398 405.757 225.654 407.689C225.911 409.622 226.084 411.539 226.244 413.569C226.388 415.439 226.478 417.394 226.637 419.245C226.749 420.603 226.902 421.98 227.226 423.3C227.575 424.683 228.121 425.855 228.798 426.95C228.854 427.037 228.941 427.066 228.995 427.153C229.135 428.277 230.007 429.97 230.029 432.424C230.043 434.325 230.622 436.508 230.431 438.709C230.243 440.91 229.935 443.131 229.645 445.197C229.431 446.687 229.294 448.171 229.251 449.454C229.209 450.368 229.336 451.249 229.448 452.292C229.729 454.718 230.059 456.992 231.489 459.238C232.327 460.574 233.169 461.164 234.554 461.864C235.74 462.448 237.598 463.078 238.758 463.23C240.266 463.432 241.851 463.642 243.079 464.042C244.759 464.588 245.93 465.275 246.812 465.866C245.977 465.213 244.706 464.304 243.079 463.636C241.84 463.132 240.452 462.722 238.954 462.419C237.82 462.181 235.916 461.623 234.947 461.053C233.809 460.413 233.193 459.874 232.471 458.63C231.248 456.479 231.029 454.509 230.823 452.292C230.674 450.772 230.725 449.133 230.823 447.832C230.879 447.054 230.935 446.315 231.02 445.399C231.218 443.432 231.368 441.128 231.413 438.911C231.455 436.694 230.789 434.575 230.618 432.626C230.423 430.398 229.436 428.759 229.191 427.558C229.769 428.427 230.376 429.259 230.959 429.991C232.67 432.15 233.996 433.901 234.888 435.262C235.779 436.623 236.262 437.492 236.262 437.492C236.262 437.492 235.911 436.668 235.083 435.262C234.256 433.856 232.978 431.835 231.35 429.585C230.693 428.674 229.805 427.832 229.189 426.747C228.574 425.662 228.075 424.395 227.815 423.098C227.558 421.854 227.489 420.417 227.422 419.043C227.323 417.21 227.309 415.467 227.225 413.569C227.141 411.579 227.041 409.476 226.832 407.487C226.624 405.497 226.376 403.662 225.849 401.81C225.049 399.004 224.346 396.235 223.688 393.903C222.753 390.585 221.654 386.834 220.742 382.752C220.535 381.803 220.36 380.879 220.152 379.914C220.722 381.416 221.427 382.161 222.509 383.361C225.399 386.564 227.42 383.563 227.42 383.563C229.777 385.444 233.803 391.392 240.779 407.284C240.251 406.205 239.342 405.79 238.421 405.257C236.737 404.281 233.407 405.935 233.117 408.5C232.615 412.958 236.042 425.12 236.457 422.693C236.769 420.871 234.575 414.766 235.867 411.947C236.54 410.48 239.266 410.092 241.368 410.933C241.922 411.156 241.719 409.543 241.368 408.5C241.359 408.456 241.377 408.328 241.368 408.297C235.987 393.474 231.006 383.119 226.831 378.089C224.358 375.11 221.754 373.546 220.545 373.629C220.055 373.673 219.748 374.53 219.562 375.251C219.556 374.47 219.605 373.788 219.759 373.021C220.193 370.986 220.854 368.798 222.509 367.952C224.071 367.054 226.114 367.539 227.813 368.358C235.139 371.886 237.421 377.1 240.778 383.462C242.429 386.591 245.939 396.723 247.949 405.054C246.933 396.116 244.487 388.497 243.627 385.793L254.922 385.996C255.02 388.312 255.202 390.596 255.708 392.889C256.504 396.553 258.218 400.21 261.013 402.823C264.767 406.244 269.583 407.649 274.174 408.905C281.623 410.99 289.28 411.931 296.962 411.946C307.071 411.975 317.224 411.21 327.214 409.513C330.759 408.912 334.339 408.177 337.822 407.08C338.99 406.714 340.207 406.43 341.358 405.863C342.06 405.544 342.848 405.03 343.519 404.241C345.364 401.883 346.214 399.017 346.859 396.334C347.636 393.219 348.062 390.103 348.627 387.008C349.018 384.837 348.944 382.433 348.43 380.318C354.29 375.782 361.419 375.254 364.931 375.25C368.587 375.246 374.708 376.628 380.45 379.71C380.459 380.584 380.493 381.483 380.647 382.345C381.25 385.433 381.989 388.567 382.808 391.671C383.487 394.345 384.272 397.245 386.147 399.578C386.828 400.358 387.602 400.891 388.308 401.2C389.466 401.751 390.672 402.067 391.844 402.416C395.341 403.465 398.899 404.094 402.452 404.646C412.463 406.206 422.596 406.836 432.704 406.674C440.385 406.558 448.07 405.616 455.492 403.43C460.066 402.111 464.944 400.414 468.654 396.942C471.414 394.291 473.012 390.682 473.761 387.008C474.243 384.686 474.491 382.252 474.547 379.912L490.056 376.466C488.287 380.024 486.76 385.486 485.352 391.266C487.364 385.644 490.579 378.813 492.62 375.25C493.13 374.358 494.438 372.236 495.763 370.992C497.093 369.75 498.601 368.515 500.281 367.343C501.44 366.538 502.69 365.812 504.014 365.315C505.753 364.707 507.737 363.992 509.121 364.91C510.037 365.398 510.708 366.391 511.086 367.545C510.687 367.347 510.125 367.332 509.514 367.342C508.077 367.371 505.994 368.015 503.621 369.978C498.781 373.98 494.507 382.804 487.905 404.444C487.807 404.768 487.807 405.126 487.709 405.458C487.625 406.047 487.723 406.809 488.102 406.675C491.548 405.428 494.153 406.632 494.585 409.514C495.041 412.564 491.35 417.965 492.227 418.637C493.127 419.327 494.359 416.423 495.37 413.974C496.516 411.201 497.452 408.721 497.335 406.473C497.055 401.126 493.12 398.392 489.87 401.607C497.441 381.768 500.81 377.373 503.228 375.656C503.228 375.656 504.209 378.069 507.747 375.656C509.309 374.591 510.931 373.319 511.676 371.602C511.836 374.312 511.355 377.022 510.889 379.711C509.928 385.175 508.501 390.2 507.157 394.309C506.745 395.565 506.279 396.936 505.782 398.363C505.164 400.143 504.773 402.028 504.408 404.04C504.043 406.052 503.687 408.249 503.425 410.325C503.179 412.25 503.081 414.114 502.835 416.002C502.653 417.387 502.387 418.808 502.049 420.057C501.722 421.33 501.084 422.321 500.281 423.3C499.478 424.28 498.559 425.331 497.727 426.139C496.709 427.116 495.77 427.919 494.977 428.775C494.183 429.631 493.519 430.329 493.012 431.005C493.536 430.382 494.384 429.753 495.173 428.977C496 428.164 496.861 427.277 497.923 426.342C498.791 425.582 499.8 424.693 500.674 423.706C501.547 422.719 502.385 421.666 502.835 420.26C503.24 418.954 503.391 417.578 503.621 416.205C503.937 414.327 504.295 412.445 504.604 410.528C504.931 408.508 505.182 406.397 505.587 404.446C505.991 402.495 506.515 400.701 507.158 398.972C508.083 396.474 508.855 394.027 509.515 391.876C510.574 388.424 511.573 384.284 512.266 379.914C512.787 376.68 513.257 373.229 512.659 369.777C512.323 367.627 511.651 365.233 509.712 364.1C508.99 363.716 508.116 363.494 507.355 363.492C506.086 363.485 504.926 364.031 503.819 364.506C502.406 365.097 501.033 365.877 499.89 366.736C498.924 367.462 498.18 368.209 497.336 368.966L494.389 369.371C494.62 368.708 494.82 367.932 494.979 367.14C497.173 356.23 503.012 319.964 502.836 301.858C502.436 260.582 512.1 243.441 483.192 207.379C475.924 198.312 467.343 190.215 457.851 183.456C462.849 184.802 468.148 186.882 473.762 189.741C461.415 179.444 450.809 172.365 441.545 167.439C446.004 168.149 450.458 168.908 455.1 169.669C425.163 154.397 399.641 149.866 380.06 150.003ZM426.421 225.626C436.872 225.635 445.421 227.933 450.584 234.952C465.6 255.371 469.793 270.369 471.603 287.664C473.414 304.96 473.055 317.626 478.872 327.199C484.281 336.102 485.452 362.911 484.568 370.382L472.978 371.6C472.407 370.569 471.851 369.776 471.014 368.964C468.47 366.513 465.252 364.959 462.173 363.693C456.895 361.502 451.22 360.518 445.672 359.841C440.93 359.257 436.294 358.903 431.528 358.826C427.751 358.768 423.846 359.052 420.135 359.435C415.628 359.897 411.241 360.485 406.776 361.259C402.657 361.974 398.464 362.779 394.401 363.895C392.837 364.324 391.231 364.921 389.686 365.517C388.625 365.918 387.58 366.398 386.543 367.139C383.996 368.991 382.163 371.589 381.239 374.64C380.995 375.444 380.773 376.235 380.649 377.073C375.95 374.626 369.434 373.187 364.345 373.221C359.078 373.265 351.288 375.254 347.647 377.884C346.589 375.432 344.896 373.126 342.736 371.599C341.69 370.873 340.463 370.567 339.397 370.18C337.845 369.605 336.251 369.169 334.682 368.762C330.604 367.701 326.632 366.784 322.503 366.126C318.029 365.413 313.461 364.903 308.948 364.504C305.232 364.174 301.527 363.988 297.751 364.098C292.986 364.243 288.145 364.464 283.41 365.113C277.872 365.866 272.355 367.108 267.106 369.37C264.044 370.679 260.778 372.156 258.265 374.642C256.662 376.238 255.587 378.257 255.122 380.521L248.247 380.115C246.641 375.47 242.001 361.159 243.143 353.159C244.261 345.311 249.529 345.244 250.215 333.898C250.902 322.553 248.237 280.884 251.59 269.224C254.943 257.564 269.806 233.831 283.021 229.69C305.868 222.53 324.523 236.341 357.866 234.961C379.747 234.056 406.471 225.608 426.425 225.635L426.421 225.626ZM425.834 360.862C427.673 360.746 429.506 360.818 431.334 360.862C436.043 360.935 440.812 361.097 445.479 361.673C450.957 362.355 456.37 363.427 461.39 365.526C464.389 366.791 467.417 368.203 469.641 370.391C471.384 372.094 472.551 374.463 472.587 376.879C472.658 380.192 472.461 383.449 471.801 386.61C471.075 390.002 469.68 393.293 467.283 395.531C464.03 398.661 459.62 400.25 455.103 401.613C447.881 403.746 440.257 404.531 432.709 404.654C422.692 404.814 412.741 404.372 402.85 402.83C399.333 402.28 395.804 401.614 392.438 400.599C391.308 400.257 390.118 399.872 389.099 399.384C388.442 399.043 387.818 398.772 387.527 398.369C385.954 396.506 385.303 393.909 384.58 391.273C384.482 390.915 384.468 390.417 384.385 390.056C384.63 389.339 384.544 388.144 384.385 386.61C385.431 386.059 386.022 384.809 385.76 383.568C385.495 382.312 384.399 381.369 383.206 381.338C382.927 380.54 382.723 379.829 382.42 379.311C382.421 379.166 382.414 379.05 382.42 378.905V378.297C382.504 377.261 382.71 376.25 383.01 375.255C383.81 372.614 385.541 370.342 387.724 368.768C388.511 368.187 389.449 367.753 390.475 367.349C391.931 366.786 393.46 366.352 394.993 365.931C398.971 364.836 402.888 364.005 406.976 363.295C411.4 362.527 415.873 361.927 420.334 361.47C422.178 361.282 423.995 360.984 425.834 360.862ZM297.755 365.931C298.669 365.902 299.588 365.921 300.505 365.931C303.255 365.974 305.987 366.296 308.755 366.539C313.222 366.935 317.681 367.453 322.114 368.161C326.21 368.815 330.301 369.554 334.293 370.594C335.831 370.995 337.348 371.469 338.811 372.013C339.842 372.402 340.768 372.862 341.562 373.431C343.765 374.975 345.442 377.289 346.276 379.919C346.692 381.24 347.029 382.594 347.063 383.974C346.768 384.495 346.349 385.201 346.08 386.001C344.874 386.045 343.778 386.959 343.526 388.231C343.283 389.459 344.068 390.523 345.097 391.07C344.954 392.621 345.041 394 345.294 394.719C345.21 395.093 344.994 395.362 344.901 395.733C344.213 398.378 343.504 401.147 341.954 403.032C341.669 403.439 341.231 403.694 340.58 404.046C339.567 404.549 338.367 404.906 337.24 405.263C333.887 406.324 330.534 406.896 327.025 407.494C317.155 409.172 306.987 409.949 296.969 409.927C289.42 409.912 282.019 409.122 274.77 407.088C270.236 405.787 265.491 404.294 262.198 401.209C259.772 399.003 258.449 395.872 257.68 392.491C256.973 389.339 256.862 385.87 256.893 382.557C256.899 380.141 257.922 377.796 259.643 376.069C261.839 373.851 264.716 372.509 267.698 371.203C272.69 369.036 278.141 367.906 283.609 367.148C288.268 366.508 293.048 366.071 297.755 365.931Z" fill="#A44342"/>
<path d="M313.97 533.736C313.97 533.736 336.16 570.051 368.494 571.033C400.828 572.015 432.528 532.755 432.528 532.755C432.528 532.755 408.119 573.323 372.298 573.323C336.477 573.323 313.97 533.736 313.97 533.736Z" fill="#7D3636"/>
</svg>
