<svg width="500" height="750" viewBox="0 0 500 750" fill="none" xmlns="http://www.w3.org/2000/svg">
<rect width="500" height="750" fill="#0F323D"/>
<path d="M181.08 434.377L181.798 444.365C176.17 444.808 170.839 445.27 165.949 445.754L165.06 435.779C170.009 435.295 175.399 434.826 181.08 434.377ZM206.701 432.622L207.248 442.618C201.673 442.956 196.315 443.302 191.333 443.654L190.694 433.665C195.709 433.313 201.093 432.961 206.701 432.622ZM155.445 436.794L156.473 446.749C150.832 447.391 145.553 448.082 140.782 448.814L139.405 438.901C144.288 438.155 149.685 437.451 155.445 436.794ZM104.235 447.363L107.497 456.772C102.317 458.748 97.9547 460.979 94.1589 463.583L88.9199 455.211C93.3351 452.178 98.3435 449.609 104.235 447.363ZM232.303 431.22L232.758 441.222C227.183 441.506 221.818 441.789 216.81 442.065L216.303 432.063C221.324 431.786 226.708 431.503 232.303 431.22ZM129.777 440.532L131.464 450.389C125.777 451.46 120.802 452.6 116.261 453.891L113.764 444.227C118.581 442.86 123.813 441.651 129.777 440.532ZM359.218 420.54L360.727 430.432C355.778 431.261 350.4 432.056 344.74 432.802L343.547 422.861C349.102 422.136 354.374 421.355 359.218 420.54ZM383.791 415.283L386.23 424.968C381.459 426.288 376.101 427.538 370.308 428.692L368.529 418.848C374.104 417.743 379.244 416.547 383.791 415.283ZM257.852 429.969L258.326 439.972C253.951 440.2 249.443 440.428 244.804 440.642L242.333 440.76L241.898 430.757L244.376 430.64C248.995 430.425 253.489 430.204 257.852 429.969ZM395.726 421.998L392.668 412.513C397.953 410.641 402.474 408.583 406.487 406.227L411.159 414.959C406.625 417.625 401.584 419.925 395.726 421.998ZM283.335 428.47L283.935 438.459C278.788 438.805 273.404 439.136 267.934 439.447L267.414 429.451C272.857 429.134 278.215 428.809 283.335 428.47ZM308.759 426.55L309.543 436.532C304.456 436.967 299.072 437.395 293.536 437.796L292.877 427.807C298.373 427.407 303.718 426.985 308.759 426.55ZM334.097 424.029L335.138 433.983C330.117 434.563 324.733 435.13 319.144 435.662L318.275 425.693C323.804 425.162 329.128 424.602 334.097 424.029ZM223.69 322.711L223.057 312.715C228.085 312.363 233.305 312.024 238.557 311.713L239.104 321.709C233.878 322.027 228.692 322.359 223.69 322.711ZM150.094 330.351L148.73 320.438C153.633 319.699 158.839 318.974 164.19 318.297L165.336 328.237C160.058 328.907 154.924 329.619 150.094 330.351ZM80.2872 349.9L75.6676 341.134C79.9313 338.668 84.9067 336.347 90.4685 334.219L93.7371 343.628C88.6431 345.576 84.1159 347.683 80.2872 349.9ZM102.297 340.664L99.5494 331.076C104.215 329.605 109.355 328.196 114.831 326.883L116.967 336.644C111.695 337.908 106.759 339.262 102.297 340.664ZM372.14 306.795L370.071 297.02C375.383 295.777 380.312 294.451 384.721 293.062L387.462 302.657C382.829 304.115 377.676 305.503 372.14 306.795ZM347.474 311.555L346.031 301.656C351.349 300.799 356.424 299.894 361.116 298.955L362.908 308.785C358.104 309.752 352.911 310.684 347.474 311.555ZM396.563 299.473L393.228 290.092C398.283 288.116 402.619 286.002 406.487 283.626L411.311 292.268C406.961 294.934 402.138 297.29 396.563 299.473ZM297.958 317.558L297.128 307.583C302.406 307.099 307.566 306.588 312.469 306.063L313.444 316.024C308.495 316.556 303.283 317.067 297.958 317.558ZM322.736 314.974L321.655 305.02C326.96 304.391 332.094 303.721 336.917 303.037L338.202 312.957C333.313 313.655 328.107 314.332 322.736 314.974ZM248.376 321.17L247.848 311.175C253.12 310.871 258.313 310.553 263.269 310.221L263.868 320.217C258.886 320.549 253.674 320.866 248.376 321.17ZM273.173 319.575L272.514 309.586C277.78 309.206 282.959 308.805 287.908 308.391L288.666 318.373C283.684 318.787 278.472 319.195 273.173 319.575ZM199.063 324.652L198.259 314.677C203.261 314.228 208.474 313.8 213.759 313.399L214.451 323.388C209.205 323.788 204.026 324.21 199.063 324.652ZM174.516 327.132L173.475 317.178C178.43 316.611 183.643 316.059 188.968 315.54L189.851 325.515C184.579 326.027 179.419 326.572 174.516 327.132ZM125.916 334.641L124.051 324.818C128.874 323.809 134.061 322.835 139.464 321.916L140.987 331.808C135.702 332.7 130.627 333.653 125.916 334.641ZM420.846 509.825L395.726 567.996C377.017 551.514 362.46 545.455 339.936 535.798L361.247 472.515C383.732 477.834 405.808 489.274 420.846 509.825ZM334.426 533.035C316.555 527.039 295.184 523.088 271.493 518.763L285.543 456.668C306.914 458.52 340.773 464.032 356.068 470.899L334.426 533.035ZM154.114 217.932C176.961 225.793 199.986 231.934 218.451 235.457L207.169 299.445C188.513 296.419 160.915 293.228 137.197 285.519L154.114 217.932ZM130.568 283.578C114.311 280.801 90.5278 270.777 69.025 250.309L89.5328 188.076C111.029 199.357 130.173 209.311 147.946 215.625L130.568 283.578ZM201.548 330.406L215.064 426.909C183.577 429.078 153.587 431.993 129.468 437.202L112.775 342.896C136.894 336.996 169.073 333.197 201.548 330.406ZM303.23 322.386C327.355 320.265 354.921 318.041 373.234 314.304L384.833 411.311C366.71 416.043 343.138 419.041 317.51 421.12L303.23 322.386ZM210.84 329.329C237.318 327.222 267.651 324.742 293.628 322.649L306.38 421.362C280.903 423.165 253.489 424.45 226.761 426.142L210.84 329.329ZM320.535 447.902C325.122 448.552 329.616 449.263 333.926 450.023L332.535 458.589C328.337 457.85 323.942 457.152 319.441 456.516L320.535 447.902ZM86.3762 501.597L91.4175 494.696C94.1325 496.748 97.9612 498.655 102.805 500.381L100.202 508.629C94.3698 506.557 89.8293 504.25 86.3762 501.597ZM399.449 577.017C398.171 575.608 396.971 574.323 395.89 573.225L395.357 572.686L389.03 582.129L389.419 582.523C391.376 584.513 392.49 585.797 393.571 587.034L394.447 587.994C393.544 589.963 392.787 591.607 392.207 592.857C382.632 577.328 360.681 563.319 328.43 552.197C295.19 540.744 252.916 532.931 206.167 529.609C141.679 525.029 109.368 516.422 94.0205 507.566C95.9645 508.45 98.0865 509.293 100.406 510.094L101.006 510.308L104.406 499.539L103.8 499.331C98.4884 497.487 94.4093 495.442 91.6811 493.253L91.1802 492.852L85.3482 500.824C83.391 498.606 82.2773 496.43 81.7567 494.358C81.4602 493.149 81.3679 491.947 81.4404 490.752L86.4223 489.018C95.2858 494.005 110.41 500.616 126.851 500.402L131.174 458.022C132.795 457.732 134.456 457.456 136.15 457.187L131.352 500.679C149.488 505.127 177.771 509.465 196.111 509.465L205.772 451.052C208.111 450.928 210.464 450.804 212.83 450.686L202.207 510.619C226.247 511.254 247.605 514.57 266.122 517.762L279.612 456.668C269.773 453.159 257.779 450.513 242.781 449.263C252.244 448.821 261.746 448.358 271.183 447.847L270.808 452.095L271.46 452.137C272.818 452.227 276.238 452.772 279.539 453.304C282.636 453.802 285.569 454.271 286.821 454.368L287.454 454.416L287.981 446.839C288.996 446.776 290.017 446.714 291.032 446.645L291.039 446.769C292.343 446.68 293.905 446.59 295.671 446.514L294.953 455.052L295.586 455.107C300.528 455.563 305.385 456.074 310.024 456.627L310.65 456.703L311.784 446.334C314.202 446.383 316.759 446.472 319.428 446.611L318.024 457.656L318.65 457.746C323.573 458.43 328.384 459.19 332.944 460.005L333.57 460.115L335.382 448.938L334.756 448.821C330.538 448.075 326.117 447.37 321.616 446.728C334.578 447.481 349.932 449.36 365.676 453.449C396.128 461.366 418.303 474.905 431.601 493.695C431.535 495.131 431.179 497.059 430.593 499.387C430.145 498.786 429.697 498.199 429.242 497.611C428.728 496.948 428.207 496.278 427.667 495.539L427.192 494.883L420.629 503.076L420.939 503.497C422.052 505.017 424.754 509.189 426.58 512.097C419.805 531.163 407.667 558.822 399.449 577.017ZM395.027 586.73L394.75 586.433L394.507 586.15C393.485 584.975 392.437 583.76 390.684 581.964L395.541 574.724C396.563 575.774 397.689 576.983 398.869 578.302C397.439 581.459 396.141 584.298 395.027 586.73ZM272.455 447.771C277.233 447.509 281.991 447.225 286.709 446.921L286.287 452.987C284.837 452.814 282.248 452.399 279.73 451.992C276.831 451.529 273.846 451.052 272.185 450.873L272.455 447.771ZM310.479 446.604L309.536 455.238C305.279 454.734 300.838 454.264 296.324 453.843L296.943 446.459C300.001 446.341 303.619 446.265 307.698 446.286C308.634 446.389 309.563 446.493 310.479 446.604ZM138.285 316.093C173.936 310 217.205 307.237 259.045 304.564C275.935 303.486 292.6 302.422 308.442 301.151C311.125 301.02 313.774 300.792 316.383 300.495C363.745 296.406 402.533 290.085 415.792 275.399C418.243 272.677 420.187 270.038 421.631 267.489C421.657 268.574 421.677 269.741 421.71 270.985C419.93 272.87 417.136 277.45 415.093 279.136L419.706 285.277C421.374 283.895 421.453 283.37 421.96 282.597C421.973 283.301 421.993 284.013 422.006 284.745C417.565 298.437 399.686 306.429 382.79 310.967L393.933 409.439C403.884 405.737 418.586 394.56 424.036 387.279C424.069 389.579 424.102 391.693 424.128 393.586C421.354 395.72 415.924 399.478 414.111 400.936L420.622 408.748C403.568 433.845 338.921 440.718 272.416 444.428C272.304 444.428 272.198 444.421 272.099 444.414L271.486 444.372L271.48 444.483C259.236 445.16 246.932 445.733 234.866 446.293C174.562 449.104 117.606 451.757 96.92 465.897C91.9974 469.268 85.2296 474.698 81.3284 481.233C81.2361 480.238 81.0911 478.781 80.9066 476.902C82.6134 474.65 85.8358 470.836 87.3845 469.261L80.7287 462.077C80.2344 462.582 79.8522 462.948 79.5359 463.245C79.4041 461.96 79.2657 460.627 79.1207 459.238C87.279 452.033 103.022 444.075 117.698 440.055L101.421 346.267C88.742 350.287 74.5012 358.107 67.3907 364.642C67.1535 363.06 66.9097 361.499 66.6658 359.944C68.3331 358.1 71.2985 355.254 73.1108 353.789L67.2721 345.866C66.1518 346.771 65.4072 347.406 64.7284 348.042C64.6427 347.51 64.5505 346.971 64.4582 346.446C74.6594 332.769 98.8245 322.835 138.285 316.093ZM174.121 307.804L175.07 299.176C180.137 299.784 185.383 300.315 190.681 300.758L189.495 306.298C184.348 306.774 179.267 307.279 174.266 307.817L174.121 307.804ZM208.935 304.654C206.602 304.833 204.283 305.02 201.97 305.213L202.26 301.58C204.467 301.711 206.708 301.828 208.935 301.932V304.654ZM412.24 274.107C412.668 269.879 411.192 264.229 410.494 262.06L417.63 257.072C418.553 260.049 418.955 263.13 418.836 265.88C417.525 268.18 415.746 270.591 413.479 273.105L413.42 273.167L412.24 274.107ZM82.4618 287.17C69.7697 279.357 61.5784 269.817 59.7794 260.996C60.3132 261.859 60.8733 262.716 61.4137 263.538C61.9607 264.367 62.4813 265.154 62.9228 265.887L63.4104 266.674L69.796 257.998L69.5588 257.604C69.1239 256.899 68.2408 255.691 67.2194 254.295C65.6378 252.133 63.3379 248.997 62.679 247.539L86.4289 174.585C87.5426 175.766 88.9463 177.051 90.8442 178.626L91.4373 179.117L96.696 168.789L96.2808 168.451C93.7767 166.365 91.3648 164.237 90.1786 163.077L91.8524 157.93C106.746 180.243 150.779 196.076 185.91 205.56C231.868 217.974 288.515 226.588 341.319 229.185C353.069 229.765 370.381 231.174 386.151 234.587C405.808 238.842 417.775 245.197 420.761 252.955C421.406 254.634 421.631 256.423 421.453 258.309H421.426C421.426 258.336 421.426 258.433 421.433 258.585C421.255 260.132 420.8 261.749 420.075 263.427C419.924 260.941 419.423 258.329 418.56 255.822L418.289 255.027L408.965 261.535L409.143 262.025C409.742 263.69 411.897 271.316 410.704 275.502L410.625 275.786C409.446 276.746 408.121 277.665 406.685 278.542L404.286 258.716C401.894 256.45 392.76 253.895 368.918 250.606L366.967 290.983C364.41 291.432 361.794 291.867 359.099 292.282L360.318 249.522C341.557 249.646 318.723 247.152 294.88 243.864L293.411 298.941C290.689 299.134 287.948 299.328 285.193 299.514L288.646 244.983C269.925 243.636 249.041 240.39 224.823 237.813L215.064 303.251C216.322 303.507 217.594 303.714 218.873 303.908C215.973 304.115 213.08 304.329 210.2 304.557V300.661L209.594 300.633C206.965 300.516 204.316 300.378 201.719 300.219L201.106 300.184L200.691 305.317C197.383 305.593 194.081 305.876 190.819 306.173L192.23 299.556L191.505 299.5C185.758 299.031 180.065 298.45 174.589 297.787L173.963 297.711L172.829 307.969C169.086 308.384 165.389 308.812 161.745 309.261C119.761 305.496 95.4571 295.176 82.4618 287.17ZM59.3972 257.618L62.132 249.211C63.0216 250.703 64.4912 252.741 66.2177 255.103C67.0481 256.243 67.7861 257.252 68.2474 257.936L63.4961 264.388C63.1666 263.876 62.8173 263.338 62.4483 262.785C61.3807 261.155 60.2275 259.393 59.4038 257.763L59.3972 257.618ZM89.7305 164.451C91.2659 165.902 93.6976 167.981 95.0881 169.142L91.0353 177.093C89.223 175.559 87.9051 174.323 86.8902 173.176L89.7305 164.451ZM427.127 510.557C425.479 507.959 423.383 504.733 422.243 503.117L427.146 496.997C427.528 497.501 427.898 497.978 428.26 498.447C428.912 499.29 429.545 500.112 430.164 500.996C429.4 503.766 428.365 506.992 427.127 510.557ZM434.804 493.163L434.797 492.624L434.494 492.182C420.774 472.508 397.881 458.382 366.447 450.21C352.232 446.514 338.328 444.6 326.182 443.689C337.873 442.445 349.049 440.946 359.442 439.088C400.648 431.703 422.85 419.456 427.318 401.64L427.37 401.426V401.212C427.37 382.056 424.82 267.496 424.622 258.758C424.873 256.305 424.576 253.95 423.713 251.705C416.28 232.37 368.997 227.209 341.471 225.849C288.871 223.258 232.454 214.685 186.701 202.327C135.675 188.546 102.33 171.124 92.8145 153.267L91.0748 150L56.2933 256.81L56.2077 257.065V257.342C56.1879 268.47 65.1633 280.393 80.8473 290.05C97.3154 300.191 120.406 307.389 148.163 311.106C107.036 317.191 74.3299 326.987 61.4928 345.016L61.0776 345.604L61.1962 346.315C70.0662 397.426 77.3612 482.027 78.2706 492.665C78.2772 492.776 78.2838 492.886 78.297 492.997C78.3365 493.467 78.3629 493.736 78.3629 493.778L78.3893 493.688C78.4618 494.192 78.554 494.696 78.6792 495.201C83.503 514.584 126.324 527.281 205.95 532.938C301.635 539.743 374.249 564.949 390.941 597.161L392.411 600L393.775 597.106C394.223 596.145 397.373 589.417 401.742 579.767L401.815 579.691L401.788 579.656C413.762 553.227 434.817 505.03 434.804 493.163ZM135.141 301.013C129.711 299.721 124.439 298.298 119.451 296.779L121.79 288.441C126.608 289.905 131.708 291.287 136.954 292.53L135.141 301.013ZM121.54 286.983L120.934 286.797L117.883 297.677L118.489 297.863C123.873 299.521 129.586 301.062 135.478 302.45L136.097 302.595L138.463 291.529L137.85 291.384C132.189 290.05 126.7 288.572 121.54 286.983ZM146.614 303.5L148.163 294.962C153.165 295.95 158.377 296.848 163.689 297.649L162.529 306.249C157.092 305.434 151.748 304.509 146.614 303.5ZM163.603 307.748L165.112 296.523L164.493 296.426C158.766 295.584 153.145 294.61 147.781 293.539L147.155 293.414L145.138 304.55L145.758 304.674C151.293 305.78 157.086 306.781 162.977 307.659L163.603 307.748ZM108.235 293.028C102.838 291.045 97.7372 288.911 93.0584 286.659L96.551 278.777C100.973 280.904 105.81 282.935 110.943 284.814L108.235 293.028ZM96.5049 277.298L95.9316 277.015L91.3779 287.301L91.9513 287.577C96.9925 290.037 102.535 292.364 108.419 294.492L109.013 294.713L112.551 283.999L111.952 283.778C106.416 281.775 101.217 279.592 96.5049 277.298ZM82.4552 280.939C77.1108 277.699 72.5045 274.273 68.7351 270.729L74.3365 264.318C77.6578 267.434 81.7633 270.48 86.5607 273.389L82.4552 280.939ZM74.7187 262.902L74.2508 262.453L66.9492 270.812L67.4105 271.261C71.4633 275.15 76.498 278.901 82.3761 282.417L82.9231 282.749L88.2873 272.898L87.7337 272.573C82.5541 269.472 78.1718 266.218 74.7187 262.902ZM319.382 232.943L323.724 233.295C327.158 233.578 330.538 233.848 333.86 234.131L333.201 242.794C329.741 242.503 326.215 242.213 322.631 241.923L318.736 241.605L319.382 232.943ZM333.735 244.161L334.361 244.217L335.224 232.915L334.591 232.86C331.066 232.563 327.474 232.273 323.823 231.976L318.222 231.52L317.378 242.821L322.532 243.243C326.334 243.553 330.071 243.857 333.735 244.161ZM369.86 237.744C375.356 238.469 380.154 239.229 384.464 240.065L382.935 248.603C378.79 247.802 374.164 247.07 368.839 246.365L369.86 237.744ZM383.317 250.026L383.943 250.15L385.94 239.008L385.32 238.884C380.655 237.965 375.449 237.136 369.386 236.348L368.76 236.266L367.429 247.519L368.055 247.595C373.893 248.361 378.888 249.156 383.317 250.026ZM294.261 230.788C298.656 231.195 303.276 231.603 308.693 232.059L308.027 240.721C302.591 240.265 297.951 239.858 293.53 239.45L294.261 230.788ZM308.561 242.096L309.187 242.144L310.05 230.843L309.424 230.795C303.474 230.29 298.492 229.855 293.747 229.413L293.114 229.358L292.159 240.652L292.791 240.707C297.569 241.149 302.584 241.592 308.561 242.096ZM219.683 220.308C224.329 221.282 229.08 222.201 233.825 223.044L232.441 231.617C227.611 230.753 222.78 229.814 218.049 228.826L219.683 220.308ZM232.856 233.033L233.476 233.143L235.281 221.959L234.655 221.849C229.509 220.937 224.349 219.935 219.314 218.878L218.695 218.747L216.566 229.862L217.186 229.993C222.326 231.078 227.598 232.1 232.856 233.033ZM344.581 235.05C350.058 235.54 354.822 236.003 359.112 236.466L358.256 245.108C354.018 244.652 349.306 244.196 343.876 243.705L344.581 235.05ZM358.75 246.496L359.382 246.565L360.496 235.285L359.87 235.216C355.251 234.711 350.077 234.207 344.054 233.675L343.428 233.62L342.512 244.914L343.138 244.97C349.102 245.501 354.203 245.999 358.75 246.496ZM244.343 224.805C248.909 225.524 253.707 226.222 258.623 226.871L257.588 235.492C252.6 234.829 247.736 234.131 243.104 233.399L244.343 224.805ZM258.056 236.887L258.682 236.97L260.033 225.717L259.407 225.634C254.063 224.937 248.843 224.184 243.908 223.403L243.282 223.3L241.667 234.511L242.293 234.615C247.315 235.409 252.619 236.176 258.056 236.887ZM395.225 242.579C401.393 244.327 406.19 246.358 409.861 248.762L405.307 256.029C402.395 254.15 398.302 252.458 393.109 250.979L395.225 242.579ZM405.149 257.494L405.676 257.86L411.614 248.382L411.087 248.016C407.12 245.287 401.841 243.035 394.941 241.129L394.329 240.956L391.567 251.919L392.18 252.092C397.854 253.66 402.217 255.476 405.149 257.494ZM269.239 228.197C273.839 228.736 278.551 229.247 283.605 229.758L282.814 238.414C277.707 237.896 272.949 237.371 268.31 236.832L269.239 228.197ZM283.322 239.796L283.948 239.858L284.989 228.57L284.356 228.508C278.841 227.949 273.734 227.396 268.752 226.802L268.126 226.733L266.913 237.999L267.539 238.069C272.58 238.67 277.74 239.229 283.322 239.796ZM171.267 207.322C175.762 208.821 180.381 210.264 185.014 211.632L182.786 219.998C178.055 218.609 173.33 217.131 168.743 215.597L171.267 207.322ZM183.057 221.455L183.663 221.635L186.569 210.713L185.963 210.534C180.928 209.062 175.913 207.487 171.05 205.857L170.45 205.657L167.155 216.454L167.755 216.654C172.75 218.333 177.897 219.942 183.057 221.455ZM124.973 188.076C129.112 190.211 133.474 192.311 137.949 194.342L134.68 202.32C130.067 200.234 125.573 198.065 121.296 195.861L124.973 188.076ZM134.759 203.799L135.339 204.061L139.609 193.644L139.029 193.381C134.166 191.199 129.435 188.912 124.967 186.598L124.4 186.301L119.609 196.462L120.169 196.759C124.815 199.163 129.718 201.533 134.759 203.799ZM195.294 214.513C199.874 215.735 204.573 216.91 209.265 218.008L207.479 226.491C202.688 225.379 197.904 224.177 193.231 222.933L195.294 214.513ZM207.821 227.928L208.441 228.073L210.774 217L210.154 216.854C205.06 215.673 199.96 214.402 194.991 213.069L194.385 212.903L191.696 223.887L192.309 224.052C197.39 225.413 202.609 226.719 207.821 227.928ZM147.754 198.576C152.11 200.372 156.625 202.127 161.185 203.799L158.47 212.012C153.791 210.299 149.158 208.496 144.703 206.658L147.754 198.576ZM158.654 213.477L159.254 213.691L162.793 202.983L162.2 202.762C157.237 200.959 152.341 199.06 147.629 197.105L147.043 196.863L143.062 207.404L143.649 207.646C148.493 209.656 153.54 211.618 158.654 213.477ZM103.424 175.4C107.088 177.901 111.174 180.45 115.589 182.978L111.635 190.618C107.009 187.966 102.719 185.292 98.8641 182.654L103.424 175.4ZM111.589 192.097L112.143 192.414L117.303 182.446L116.749 182.135C111.938 179.393 107.51 176.63 103.589 173.929L103.062 173.563L97.1177 183.033L97.6449 183.4C101.816 186.28 106.508 189.202 111.589 192.097ZM149.145 518.301C144.011 517.672 139.405 517.05 135.089 516.408L136.262 507.807C140.519 508.443 145.059 509.051 150.101 509.666L149.145 518.301ZM135.814 506.405L135.194 506.308L133.659 517.534L134.278 517.624C138.964 518.328 143.985 519.005 149.626 519.689L150.252 519.765L151.498 508.505L150.872 508.429C145.343 507.752 140.413 507.096 135.814 506.405ZM362.895 561.095C359.02 558.919 354.881 556.805 350.572 554.802L353.906 546.851C358.427 548.951 362.77 551.168 366.836 553.455L362.895 561.095ZM353.84 545.372L353.26 545.103L348.904 555.486L349.484 555.748C354.176 557.91 358.677 560.211 362.849 562.573L363.402 562.891L368.549 552.916L367.995 552.605C363.567 550.091 358.802 547.659 353.84 545.372ZM124.644 514.702C119.398 513.762 114.779 512.781 110.574 511.717L112.545 503.276C116.558 504.291 120.98 505.231 126.034 506.136L124.644 514.702ZM112.228 501.839L111.616 501.68L109.045 512.691L109.658 512.85C114.219 514.018 119.26 515.088 125.059 516.125L125.678 516.235L127.491 505.051L126.865 504.941C121.322 503.96 116.538 502.944 112.228 501.839ZM246.722 528.559C242.313 528.006 237.746 527.474 232.797 526.922L233.674 518.28C238.649 518.832 243.249 519.378 247.697 519.924L246.722 528.559ZM233.179 516.891L232.547 516.822L231.407 528.096L232.033 528.165C237.456 528.773 242.418 529.353 247.203 529.947L247.829 530.03L249.1 518.77L248.474 518.687C243.644 518.086 238.636 517.499 233.179 516.891ZM270.854 531.944C266.86 531.294 262.735 530.673 258.577 530.106L257.061 529.899L258.115 521.278L259.657 521.485C263.882 522.065 268.073 522.694 272.139 523.364L270.854 531.944ZM259.822 520.173L257.028 519.793L255.644 531.039L258.419 531.419C262.775 532.013 267.104 532.669 271.282 533.36L271.902 533.463L273.589 522.259L272.963 522.155C268.692 521.451 264.27 520.787 259.822 520.173ZM173.613 520.981C168.414 520.456 163.807 519.979 159.583 519.509L160.453 510.868C164.631 511.33 169.211 511.814 174.404 512.332L173.613 520.981ZM159.959 509.479L159.333 509.417L158.193 520.691L158.819 520.76C163.392 521.264 168.394 521.789 174.121 522.362L174.753 522.425L175.781 511.144L175.155 511.082C169.442 510.508 164.473 509.983 159.959 509.479ZM382.77 574.6C379.402 571.802 375.692 569.06 371.725 566.455L376.094 559.071C380.351 561.862 384.062 564.604 387.686 567.623L382.77 574.6ZM376.22 557.593L375.686 557.247L369.986 566.884L370.519 567.229C374.855 570.047 378.882 573.018 382.493 576.064L383.007 576.492L389.419 567.388L388.951 566.987C384.984 563.644 380.938 560.66 376.22 557.593ZM198.042 523.364L192.783 522.853C189.844 522.57 186.925 522.293 184.038 522.01L184.803 513.354C187.689 513.638 190.602 513.921 193.541 514.204L198.806 514.708L198.042 523.364ZM184.289 511.98L183.663 511.918L182.661 523.205L183.294 523.267C186.384 523.571 189.515 523.868 192.665 524.172L199.182 524.801L200.177 513.513L193.66 512.885C190.503 512.581 187.38 512.277 184.289 511.98ZM341.076 550.678C336.924 548.992 332.555 547.362 328.074 545.828L330.631 537.567C335.27 539.148 339.791 540.841 344.094 542.589L341.076 550.678ZM330.42 536.102L329.814 535.895L326.486 546.685L327.085 546.885C331.968 548.543 336.713 550.312 341.207 552.156L341.794 552.398L345.728 541.836L345.142 541.594C340.456 539.674 335.501 537.829 330.42 536.102ZM222.418 525.796C218.102 525.347 213.515 524.877 208.447 524.379L209.225 515.731C214.418 516.242 219.018 516.712 223.242 517.154L222.418 525.796ZM208.711 514.349L208.085 514.287L207.07 525.575L207.703 525.637C213.265 526.182 218.24 526.694 222.919 527.184L223.545 527.246L224.626 515.966L224 515.903C219.426 515.42 214.424 514.909 208.711 514.349ZM318.209 542.665C313.899 541.366 309.398 540.116 304.811 538.948L306.749 530.5C311.454 531.702 316.08 532.98 320.515 534.32L318.209 542.665ZM306.433 529.056L305.82 528.904L303.283 539.929L303.895 540.081C308.897 541.345 313.8 542.706 318.466 544.122L319.072 544.302L322.077 533.415L321.471 533.228C316.64 531.764 311.579 530.362 306.433 529.056ZM294.716 536.537C290.301 535.549 285.721 534.61 281.081 533.74L282.531 525.188C287.269 526.072 291.955 527.039 296.462 528.048L294.716 536.537ZM282.129 523.765L281.503 523.647L279.612 534.81L280.238 534.928C285.292 535.867 290.281 536.897 295.072 537.974L295.684 538.112L297.965 527.032L297.345 526.887C292.436 525.782 287.315 524.732 282.129 523.765ZM389.577 466.484C393.953 468.571 398.091 470.823 401.9 473.206L397.604 480.639C394.091 478.442 390.256 476.349 386.19 474.415L389.577 466.484ZM397.492 482.117L398.032 482.456L403.634 472.757L403.093 472.418C398.935 469.773 394.368 467.279 389.525 465.006L388.945 464.73L384.523 475.078L385.096 475.347C389.538 477.44 393.709 479.713 397.492 482.117ZM367.053 457.829C371.6 459.238 375.969 460.758 380.061 462.367L377.122 470.491C373.228 468.964 369.063 467.514 364.733 466.174L367.053 457.829ZM377.267 471.962L377.854 472.197L381.689 461.601L381.103 461.366C376.628 459.584 371.818 457.905 366.803 456.371L366.196 456.185L363.165 467.072L363.771 467.258C368.516 468.709 373.056 470.291 377.267 471.962ZM343.916 451.937C348.502 452.89 352.964 453.933 357.195 455.031L355.178 463.459C351.092 462.395 346.776 461.386 342.321 460.461L343.916 451.937ZM355.481 464.903L356.094 465.068L358.73 454.071L358.117 453.905C353.491 452.689 348.588 451.55 343.54 450.507L342.921 450.382L340.838 461.504L341.458 461.635C346.334 462.637 351.053 463.735 355.481 464.903ZM410.566 479.271C414.342 482.186 417.143 484.362 420.293 487.747L415.093 494.931C412.24 491.857 409.064 488.949 405.65 486.269L410.566 479.271ZM414.698 496.403L415.205 496.962L421.953 487.65L421.578 487.243C418.144 483.478 415.199 481.205 411.126 478.055L410.303 477.42L403.884 486.552L404.398 486.946C408.154 489.84 411.62 493.025 414.698 496.403Z" fill="#7D3636"/>
</svg>
